<?xml version="1.0" encoding="UTF-8"?>
<svg xmlns="http://www.w3.org/2000/svg" version="1.1" viewBox="0 0 1000 1000">
  <defs>
    <style>
      .cls-1 {
        stroke-width: 9.9px;
      }

      .cls-1, .cls-2, .cls-3, .cls-4, .cls-5, .cls-6, .cls-7, .cls-8, .cls-9 {
        fill: none;
        stroke: #000;
        stroke-miterlimit: 10;
      }

      .cls-2 {
        stroke-width: 9px;
      }

      .cls-2, .cls-3, .cls-4, .cls-5, .cls-6, .cls-7, .cls-8, .cls-9 {
        stroke-linecap: round;
      }

      .cls-3 {
        stroke-width: 25.1px;
      }

      .cls-4 {
        stroke-width: 7.1px;
      }

      .cls-5 {
        stroke-width: 13.5px;
      }

      .cls-6 {
        stroke-width: 17px;
      }

      .cls-7 {
        stroke-width: 8.1px;
      }

      .cls-8 {
        stroke-width: 13.9px;
      }

      .cls-9 {
        stroke-width: 9.5px;
      }
    </style>
  </defs>
  <!-- Generator: Adobe Illustrator 28.6.0, SVG Export Plug-In . SVG Version: 1.2.0 Build 709)  -->
  <g>
    <g id="Camada_1">
      <g>
        <g>
          <path class="cls-3" d="M617.5,699"/>
          <path class="cls-3" d="M617.5,699v87.3c0,53.4-39.1,96.6-87.4,96.6h-266.3c-48.2,0-87.4-43.3-87.4-96.6V213.6c0-53.4,39.1-96.6,87.4-96.6h266.3c48.2,0,87.4,43.3,87.4,96.6v90.7"/>
          <line class="cls-5" x1="617.5" y1="748.9" x2="176.5" y2="748.9"/>
          <path class="cls-5" d="M311.4,117l.3,20.8c.3,19.9,14.9,35.9,32.9,36l52.4.3,57.8-.3c18.1,0,32.8-16.3,33-36.4v-20.4c.1,0-176.4,0-176.4,0Z"/>
          <ellipse class="cls-5" cx="397.3" cy="810.1" rx="26.9" ry="29.7"/>
        </g>
        <g>
          <path d="M602.1,450.2c-16.1,0-32.2-.1-48.3,0-5.8,0-11.7,0-17.3,1.4-27.2,6.4-38.6,37.1-23,60.4,2.2,3.3,3.1,8.1,2.8,12.1-.9,12.3,2.6,22.8,10.4,32.4,2.4,3,4.5,7.2,4.5,10.9,0,11.5,3.6,21.1,11.5,29.5,2.3,2.5,3.4,6.4,4.2,9.9,4.1,18.9,18.6,30.8,37.9,30.8,20.4,0,40.8-.1,61.3,0,14,.1,26.6-3.8,38.2-11.4,12.2-8,24.3-16.1,36.3-24.3,8.8-6,10.7-13.3,5.6-20.9-4.8-7.2-13-8.3-21.6-2.6-12.2,7.9-24,16.6-36.7,23.8-6.7,3.7-14.7,6.4-22.3,6.8-19,1-38.2.4-57.3.3-10.3,0-13.7-3.5-12.7-13.4.8-7.5-1.9-12.7-8.2-16.6-8.3-5.3-9.3-9.3-4.9-17.8,4.9-9.5,2.2-17.1-7.6-21.2-10.6-4.4-12.2-9.1-6.8-19,4.9-8.9,3.1-16.3-5.8-21.6-5.1-3-8.3-6.7-6.9-12.9,1.6-6.7,6.9-8.2,12.8-8.2,26,0,52-.1,78,0,6.3,0,11.6-1.1,14.7-7.2,3-5.9,1.1-10.9-1.4-16.5-6.7-14.6-13.2-29.3-18.8-44.3-3.3-8.9,1.2-17.3,9.1-20.1,8.3-3,16.4,1.2,20.1,10.6,1.5,3.9,2,8.4,4,12,6.1,11.6,11.6,23.8,19.3,34.3,8.8,11.9,19.6,22.3,29.8,33,7,7.4,14.8,7.9,21,2.1,6.2-5.8,6.5-13.9.2-21.3-7-8.3-14.2-16.5-22-24.1-12.4-12-19.9-26.2-24.6-42.8-7.9-28-34.5-40.6-60.6-29.8-17.9,7.4-29.3,27.5-25.5,46.5,2.6,12.9,6.8,25.4,10.5,39.1Z"/>
          <path d="M823.5,548.7c0-22.3,0-44.5,0-66.8,0-14.5-7.5-21.8-22.2-21.9-11.7,0-23.3,0-35,0-13.3,0-20.4,6.3-21.3,19.5-.7,10-.3,20.1-.3,30.2,0,34.5-.3,68.9.2,103.4,0,6.3,1.7,13.4,5.2,18.5,2.4,3.5,8.9,5.6,13.8,5.9,13.2.8,26.5.3,39.8.3,12.7,0,19.7-7.3,19.8-20.6.1-22.8,0-45.6,0-68.4Z"/>
        </g>
        <rect class="cls-1" x="231.7" y="260.7" width="70.8" height="70.8" rx="7.9" ry="7.9"/>
        <rect class="cls-1" x="232.4" y="371.9" width="70.8" height="70.8" rx="7.9" ry="7.9"/>
        <rect class="cls-1" x="232.4" y="483" width="70.8" height="70.8" rx="7.9" ry="7.9"/>
        <rect class="cls-1" x="233.8" y="594.2" width="70.8" height="70.8" rx="7.9" ry="7.9"/>
        <line class="cls-6" x1="333" y1="296.1" x2="549.6" y2="296.1"/>
        <line class="cls-6" x1="333" y1="408" x2="513.5" y2="408"/>
        <line class="cls-4" x1="337.2" y1="443.4" x2="449.7" y2="443.4"/>
        <line class="cls-9" x1="333" y1="331.5" x2="530.4" y2="331.5"/>
        <line class="cls-6" x1="333" y1="518.4" x2="449.7" y2="518.4"/>
        <line class="cls-7" x1="330.1" y1="553.8" x2="475.2" y2="553.8"/>
        <line class="cls-6" x1="333" y1="630.3" x2="475.2" y2="630.3"/>
        <line class="cls-2" x1="333" y1="664.2" x2="513.5" y2="664.2"/>
        <polyline class="cls-8" points="248.7 277.6 266 308.9 326.1 252.2"/>
      </g>
    </g>
  </g>
</svg>